<svg width="166" height="50" viewBox="0 0 166 50" fill="none" xmlns="http://www.w3.org/2000/svg">
<g clip-path="url(#clip0_536_9837)">
<path d="M31.3795 24.9489L34.6304 30.7012L37.2311 34.8877L42.9458 24.9489L37.2311 15.0102L31.3795 24.9489ZM16.665 27.1613H27.4442L29.9081 31.3819L33.4669 37.2702H22.3113H21.6611L15.8095 27.1613H16.665ZM33.4327 12.7297L27.5811 22.8046H26.9309H15.8095L19.3684 16.9163L21.8322 12.6957H32.6114H33.4327V12.7297Z" fill="url(#paint0_radial_536_9837)"/>
<path d="M14.7145 15.6909L10.2317 24.2682L14.7145 32.5732L0 24.2682L14.7145 15.6909Z" fill="#3A3A3A"/>
<path d="M43.8013 50V49.3533V33.1859L38.6683 41.1845L28.9841 41.5929L43.2195 49.6937L43.8013 50Z" fill="#3A3A3A"/>
<path d="M43.7671 0L29.121 8.57726L38.5999 8.84956L43.8013 16.9503C43.8013 16.9503 43.8697 13.7849 43.8355 12.3213C43.8355 10.143 43.7671 0 43.7671 0Z" fill="#3A3A3A"/>
<path d="M68.7133 32.9816L63.6829 22.9748L58.6184 32.9816H55.6071L63.6487 17.0184L63.6829 17.0524V17.0184L71.7246 33.0156H68.7133V32.9816ZM77.1313 24.983L79.5267 25.017C80.2453 25.017 80.8613 24.7447 81.4088 24.2342C81.9563 23.7236 82.2301 23.0769 82.2301 22.3281C82.2301 21.6133 81.9905 21.0007 81.4088 20.4561C80.8955 19.9455 80.2795 19.6732 79.5267 19.6732H72.2721V17.0184H79.5267C80.9981 17.0184 82.2643 17.5289 83.3251 18.5841C84.3517 19.6392 84.8992 20.8986 84.8992 22.3621C84.8992 23.4854 84.5912 24.4724 83.9753 25.3914C83.3593 26.2764 82.5722 26.9231 81.6141 27.3315L84.8992 33.0497H81.8194L77.1313 24.983ZM72.2721 21.8856H74.9412V32.9816H72.2721V21.8856Z" fill="url(#paint1_linear_536_9837)"/>
<path d="M102.043 24.983L94.0016 17.0184V32.9816H96.6366V23.4513L102.043 28.7951L107.416 23.4513V32.9816H110.085V17.0184L102.043 24.983Z" fill="#3A3A3A"/>
<path d="M122.78 19.6732H112.07V17.0184H122.78V19.6732ZM122.78 26.3444H112.07V23.6896H122.78V26.3444ZM122.78 30.3267V33.0156H112.07V30.3267H122.78Z" fill="#3A3A3A"/>
<path d="M129.659 24.983L132.054 25.017C132.773 25.017 133.389 24.7447 133.936 24.2342C134.484 23.7236 134.757 23.0769 134.757 22.3281C134.757 21.6133 134.518 21.0007 133.936 20.4561C133.423 19.9455 132.807 19.6732 132.054 19.6732H124.799V17.0184H132.054C133.525 17.0184 134.792 17.5289 135.852 18.5841C136.879 19.6392 137.427 20.8986 137.427 22.3621C137.427 23.4854 137.119 24.4724 136.503 25.3914C135.887 26.2764 135.1 26.9231 134.141 27.3315L137.427 33.0497H134.347L129.659 24.983ZM124.799 21.8856H127.469V32.9816H124.799V21.8856Z" fill="#3A3A3A"/>
<path d="M151.251 28.7611L153.168 30.6331C152.449 31.3478 151.559 31.9605 150.601 32.369C149.643 32.8114 148.582 32.9816 147.487 32.9816C146.392 32.9816 145.331 32.7774 144.373 32.3349C143.381 31.9265 142.559 31.3478 141.807 30.6331C141.088 29.9183 140.506 29.0674 140.096 28.1144C139.651 27.1273 139.445 26.1062 139.445 25.017V24.983C139.445 23.8598 139.651 22.8727 140.096 21.8856C140.506 20.9326 141.088 20.0817 141.807 19.3669C142.559 18.6521 143.415 18.0735 144.373 17.6651C145.331 17.2226 146.392 17.0184 147.487 17.0184C148.616 17.0184 149.643 17.2226 150.601 17.631C151.559 18.0395 152.415 18.6181 153.168 19.3669L151.251 21.2389C150.19 20.2178 148.924 19.7073 147.453 19.7073C146.734 19.7073 146.016 19.8434 145.365 20.1157C144.715 20.388 144.134 20.7624 143.654 21.273C143.175 21.7495 142.799 22.3281 142.525 22.9748C142.251 23.6215 142.08 24.3022 142.08 25.017C142.08 25.7318 142.217 26.4125 142.525 27.0933C142.799 27.74 143.175 28.3186 143.654 28.7611C144.168 29.2716 144.715 29.68 145.365 29.9183C145.981 30.1906 146.7 30.3267 147.453 30.3267C148.924 30.2927 150.156 29.7822 151.251 28.7611ZM153.27 23.6896V26.3444H147.419V23.6896H153.27Z" fill="#3A3A3A"/>
<path d="M166 19.6732H155.289V17.0184H166V19.6732ZM166 26.3444H155.289V23.6896H166V26.3444ZM166 30.3267V33.0156H155.289V30.3267H166Z" fill="#3A3A3A"/>
</g>
<defs>
<radialGradient id="paint0_radial_536_9837" cx="0" cy="0" r="1" gradientUnits="userSpaceOnUse" gradientTransform="translate(29.3866 24.9988) rotate(180) scale(22.3615 22.2419)">
<stop stop-color="#006FB7"/>
<stop offset="1" stop-color="#01ECFF"/>
</radialGradient>
<linearGradient id="paint1_linear_536_9837" x1="56.7139" y1="21.5134" x2="84.6137" y2="30.2179" gradientUnits="userSpaceOnUse">
<stop stop-color="#006FB7"/>
<stop offset="0.3143" stop-color="#009AD0"/>
<stop offset="0.7778" stop-color="#01D5F2"/>
<stop offset="1" stop-color="#01ECFF"/>
<stop offset="1" stop-color="#01ECFF"/>
</linearGradient>
<clipPath id="clip0_536_9837">
<rect width="166" height="50" fill="white"/>
</clipPath>
</defs>
</svg>
