<svg width="19" height="19" viewBox="0 0 19 19" fill="none" xmlns="http://www.w3.org/2000/svg">
<path fill-rule="evenodd" clip-rule="evenodd" d="M18.62 9.71604C18.62 9.0424 18.5595 8.39468 18.4473 7.77286H9.5V11.4476H14.6127C14.3925 12.6351 13.7232 13.6413 12.717 14.3149V16.6985H15.7873C17.5836 15.0447 18.62 12.6092 18.62 9.71604Z" fill="#4285F4"/>
<path fill-rule="evenodd" clip-rule="evenodd" d="M9.4998 19C12.0648 19 14.2153 18.1493 15.7871 16.6984L12.7168 14.3147C11.8662 14.8847 10.778 15.2216 9.4998 15.2216C7.02548 15.2216 4.93116 13.5504 4.18412 11.305H1.01025V13.7663C2.57344 16.8711 5.78616 19 9.4998 19Z" fill="#34A853"/>
<path fill-rule="evenodd" clip-rule="evenodd" d="M4.18432 11.3048C3.99432 10.7348 3.88636 10.126 3.88636 9.49982C3.88636 8.87369 3.99432 8.26482 4.18432 7.69482V5.23346H1.01045C0.367045 6.51596 0 7.96687 0 9.49982C0 11.0328 0.367045 12.4837 1.01045 13.7662L4.18432 11.3048Z" fill="#FBBC05"/>
<path fill-rule="evenodd" clip-rule="evenodd" d="M9.4998 3.77841C10.8946 3.77841 12.1468 4.25773 13.1314 5.19909L15.8562 2.47432C14.2109 0.941364 12.0605 0 9.4998 0C5.78616 0 2.57344 2.12886 1.01025 5.23364L4.18412 7.695C4.93116 5.44955 7.02548 3.77841 9.4998 3.77841Z" fill="#EA4335"/>
</svg>
