<svg width="18" height="18" viewBox="0 0 18 18" fill="none" xmlns="http://www.w3.org/2000/svg">
<path d="M9.9683 12.96C8.76932 12.96 7.56266 12.96 6.36369 12.96C4.85728 12.96 3.85813 12.1566 3.52765 10.709C2.88973 7.91997 2.24413 5.13091 1.60621 2.34944C1.56778 2.19028 1.49093 2.06902 1.3449 1.97807C1.01441 1.77344 0.699296 1.56123 0.376495 1.34902C-0.00779171 1.09133 -0.107706 0.659335 0.130552 0.310703C0.361124 -0.0303493 0.806897 -0.0985599 1.19118 0.151545C1.55241 0.386493 1.91364 0.62144 2.26719 0.863966C2.64379 1.11407 2.88205 1.45512 2.98196 1.8947C3.63525 4.71407 4.28854 7.54102 4.93414 10.368C5.12628 11.2017 5.51825 11.5275 6.37906 11.5275C8.78469 11.5275 11.1826 11.5275 13.5883 11.5275C14.403 11.5275 14.8103 11.2092 14.9948 10.4362C15.4943 8.26102 16.0016 6.08586 16.4935 3.9107C16.6856 3.0846 16.1323 2.40249 15.2715 2.40249C12.789 2.40249 10.3142 2.40249 7.83166 2.40249C7.29366 2.40249 6.94012 1.96291 7.07846 1.47786C7.17069 1.16712 7.45506 0.962493 7.82398 0.962493C9.16129 0.962493 10.4986 0.962493 11.8359 0.962493C12.9657 0.962493 14.1032 0.962493 15.233 0.962493C17.0699 0.962493 18.3073 2.5086 17.9 4.26691C17.3927 6.45723 16.8931 8.64755 16.3859 10.8303C16.0785 12.1414 15.0563 12.96 13.6882 12.9675C12.4585 12.9675 11.2134 12.96 9.9683 12.96Z" fill="#3A3A3A"/>
<path d="M8.96151 9.56465C8.73094 9.57223 8.56185 9.48886 8.41582 9.34486C7.97005 8.90528 7.52427 8.4657 7.0785 8.02612C6.77876 7.72297 6.77107 7.28339 7.05545 6.99539C7.3475 6.69981 7.79328 6.69981 8.11608 7.00297C8.35433 7.23033 8.58491 7.45012 8.80779 7.68507C8.91539 7.80633 8.97688 7.81391 9.10754 7.69265C10.0068 6.79076 10.9214 5.89644 11.8283 5.00212C12.0281 4.80507 12.2587 4.69139 12.5431 4.75202C13.0964 4.85812 13.3193 5.50233 12.9504 5.92675C12.8812 6.01012 12.8044 6.07833 12.7275 6.15412C11.6669 7.20002 10.6063 8.23833 9.55331 9.29181C9.36885 9.45097 9.19208 9.57981 8.96151 9.56465Z" fill="#3A3A3A"/>
<path d="M5.11865 16.0674C5.11865 15.0063 5.99483 14.1499 7.06314 14.1499C8.14683 14.1575 9.01532 15.0215 9.00764 16.0901C8.99995 17.1436 8.11609 18 7.04777 17.9924C5.97945 17.9924 5.11865 17.1284 5.11865 16.0674Z" fill="#3A3A3A"/>
<path d="M10.9598 16.075C10.9598 15.0139 11.8283 14.1575 12.8966 14.1499C13.9726 14.1499 14.8565 15.0215 14.8488 16.0825C14.8411 17.136 13.965 17.9924 12.8966 17.9924C11.8283 18 10.9598 17.136 10.9598 16.075Z" fill="#3A3A3A"/>
</svg>
